# xmcd
#
# Track frame offsets: 
#        182
#        35290
#        49777
#        52862
#        68935
#        80740
#        107987
#        117977
#        158305
#        178467
#        213497
#        234590
#        253302
#
# Disc length: 3692 seconds
#
# Revision: 1
# Processed by: cddbd v1.5.2PL0 Copyright (c) Steve Scherf et al.
# Submitted via: ExactAudioCopy v0.99pb5
#
DISCID=b70e6a0d
DTITLE=Chicago Brass Quintet - Music for Brass and Organ
DYEAR=1993
DGENRE=Brass Ensemble
TTITLE0=Louis Vierne: Triumphal March, Op.16
TTITLE1=John Stanley: Trumpet tune
TTITLE2=Dietrich Buxtehude: Fanfare
TTITLE3=Jeremiah Clarke: Trumpet Voluntary
TTITLE4=Aurelio Bonelli: Toccata from Primo die Ricercari
TTITLE5=Tomaso Albinoni: Concerto in F for Trumpet and Organ
TTITLE6=Benedetto Marcello: The Heavens are Telling from Ersto Poetico
TTITLE6=Armonico
TTITLE7=Marcel Duprè: Poem Heroic
TTITLE8=Oistein Sommerfeldt: Elegy for Trumpet and Organ
TTITLE9=Michael McCabe: Three Pieces for Ceremony
TTITLE10=Gustav Mahler: Primeval Light from Symphony No. 2
TTITLE11=James Mattern: Fanfare and Flourish
TTITLE12=Charles Marie Widor: Toccata from Organ Symphony No.5
EXTD=YEAR: 1993
EXTT0=
EXTT1=
EXTT2=
EXTT3=
EXTT4=
EXTT5=
EXTT6=
EXTT7=
EXTT8=
EXTT9=
EXTT10=
EXTT11=
EXTT12=
PLAYORDER=
